<mxfile host="app.diagrams.net" modified="2022-04-04T12:50:03.313Z" agent="5.0 (Windows NT 10.0; Win64; x64) AppleWebKit/537.36 (KHTML, like Gecko) Chrome/99.0.4844.84 Safari/537.36" etag="gJyK_xmP2XKXdmT3xC1G" version="17.4.0" type="github">
  <diagram name="Page-1" id="6133507b-19e7-1e82-6fc7-422aa6c4b21f">
    <mxGraphModel dx="780" dy="792" grid="1" gridSize="10" guides="1" tooltips="1" connect="1" arrows="1" fold="1" page="1" pageScale="1" pageWidth="1100" pageHeight="850" background="none" math="0" shadow="0">
      <root>
        <mxCell id="0" />
        <mxCell id="1" parent="0" />
        <mxCell id="wckiL20DIeBuHZd-Zmyn-1" style="edgeStyle=orthogonalEdgeStyle;rounded=0;orthogonalLoop=1;jettySize=auto;html=1;" edge="1" parent="1" source="wckiL20DIeBuHZd-Zmyn-2" target="wckiL20DIeBuHZd-Zmyn-4">
          <mxGeometry relative="1" as="geometry" />
        </mxCell>
        <mxCell id="wckiL20DIeBuHZd-Zmyn-2" value="Server" style="rounded=0;whiteSpace=wrap;html=1;" vertex="1" parent="1">
          <mxGeometry x="200" y="220" width="80" height="30" as="geometry" />
        </mxCell>
        <mxCell id="wckiL20DIeBuHZd-Zmyn-3" style="edgeStyle=orthogonalEdgeStyle;rounded=0;orthogonalLoop=1;jettySize=auto;html=1;entryX=1;entryY=0.5;entryDx=0;entryDy=0;" edge="1" parent="1" source="wckiL20DIeBuHZd-Zmyn-4" target="wckiL20DIeBuHZd-Zmyn-2">
          <mxGeometry relative="1" as="geometry" />
        </mxCell>
        <mxCell id="wckiL20DIeBuHZd-Zmyn-4" value="Client" style="rounded=0;whiteSpace=wrap;html=1;" vertex="1" parent="1">
          <mxGeometry x="440" y="220" width="80" height="30" as="geometry" />
        </mxCell>
      </root>
    </mxGraphModel>
  </diagram>
</mxfile>
